<svg width="1920" height="724" viewBox="0 0 1920 724" fill="none" xmlns="http://www.w3.org/2000/svg">
<g clip-path="url(#clip0_110_94)">
<rect width="1921" height="724" fill="#00215E"/>
<path d="M0 606V551L173 724H117L0 606Z" fill="white" fill-opacity="0.1"/>
<path d="M59 584.376V544L186 671H144.89L59 584.376Z" fill="white" fill-opacity="0.1"/>
<path d="M101 562.064V529L205 633H171.335L101 562.064Z" fill="white" fill-opacity="0.1"/>
<path d="M118 -2.40413e-06L173 0L-7.56207e-06 173L-5.11423e-06 117L118 -2.40413e-06Z" fill="white" fill-opacity="0.1"/>
<path d="M139.624 59L180 59L53 186L53 144.89L139.624 59Z" fill="white" fill-opacity="0.1"/>
<path d="M161.936 101L195 101L91 205L91 171.335L161.936 101Z" fill="white" fill-opacity="0.1"/>
</g>
<defs>
<clipPath id="clip0_110_94">
<rect width="1921" height="724" fill="white"/>
</clipPath>
</defs>
</svg>
