<svg width="42" height="42" viewBox="0 0 42 42" fill="none" xmlns="http://www.w3.org/2000/svg">
<g clip-path="url(#clip0_110_114)">
<mask id="path-1-inside-1_110_114" fill="white">
<path d="M0 2C0 0.89543 0.895431 0 2 0H40C41.1046 0 42 0.895431 42 2V40C42 41.1046 41.1046 42 40 42H2C0.89543 42 0 41.1046 0 40V2Z"/>
</mask>
<path d="M20.3035 24.0796L22.7745 26.5506L37.59 11.7351L40.0645 14.2096L22.7745 31.4996L11.6375 20.3626L14.112 17.8881L17.8307 21.6069L20.3035 24.0779V24.0796ZM20.307 19.1306L28.973 10.4629L31.4405 12.9304L22.7745 21.5981L20.307 19.1306ZM15.3598 29.0269L12.887 31.4996L1.75 20.3626L4.2245 17.8881L6.69725 20.3609L6.6955 20.3626L15.3598 29.0269Z" fill="#00215E"/>
</g>
<path d="M0 0H42H0ZM42 40C42 42.7614 39.7614 45 37 45H5C2.23858 45 0 42.7614 0 40V39C0 39 0.895431 39 2 39H40C41.1046 39 42 39 42 39V40ZM0 42V0V42ZM42 0V42V0Z" fill="#00215E" mask="url(#path-1-inside-1_110_114)"/>
<defs>
<clipPath id="clip0_110_114">
<path d="M0 2C0 0.89543 0.895431 0 2 0H40C41.1046 0 42 0.895431 42 2V40C42 41.1046 41.1046 42 40 42H2C0.89543 42 0 41.1046 0 40V2Z" fill="white"/>
</clipPath>
</defs>
</svg>
