<svg width="36" height="36" viewBox="0 0 36 36" fill="none" xmlns="http://www.w3.org/2000/svg">
<path d="M24.75 10.1248C24.6446 10.2293 24.5609 10.3538 24.5038 10.4909C24.4466 10.628 24.4172 10.775 24.4172 10.9235C24.4172 11.072 24.4466 11.2191 24.5038 11.3562C24.5609 11.4933 24.6446 11.6177 24.75 11.7223L29.925 16.8973H3.4425C3.14414 16.8973 2.85799 17.0158 2.64701 17.2268C2.43603 17.4377 2.3175 17.7239 2.3175 18.0223C2.3175 18.3206 2.43603 18.6068 2.64701 18.8178C2.85799 19.0287 3.14414 19.1473 3.4425 19.1473H29.9025L24.75 24.2885C24.5405 24.4993 24.4229 24.7844 24.4229 25.0816C24.4229 25.3788 24.5405 25.664 24.75 25.8748C24.9608 26.0843 25.2459 26.2019 25.5431 26.2019C25.8403 26.2019 26.1255 26.0843 26.3363 25.8748L33.4913 18.7198C33.5876 18.6274 33.6642 18.5165 33.7165 18.3937C33.7689 18.2709 33.7959 18.1388 33.7959 18.0054C33.7959 17.8719 33.7689 17.7399 33.7165 17.6171C33.6642 17.4943 33.5876 17.3834 33.4913 17.291L26.3475 10.1248C26.2429 10.0193 26.1185 9.93563 25.9814 9.87851C25.8443 9.8214 25.6973 9.79199 25.5488 9.79199C25.4002 9.79199 25.2532 9.8214 25.1161 9.87851C24.979 9.93563 24.8546 10.0193 24.75 10.1248Z" fill="#00215E"/>
</svg>
