<svg width="203" height="50" viewBox="0 0 203 50" fill="none" xmlns="http://www.w3.org/2000/svg">
<path d="M4.24 39V9.8H8.16V39H4.24ZM7.36 39V35.48H20.72V39H7.36ZM23.3466 39L33.8666 9.8H40.5066L51.3466 39H47.3066L37.5066 12.36L39.4266 13.32H34.7066L36.7466 12.36L27.2666 39H23.3466ZM29.6266 30.28L30.9466 26.76H43.5466L44.8666 30.28H29.6266ZM60.33 39L52.45 9.8H56.49L63.33 36.44L61.45 35.48H66.21L64.13 36.44L69.69 11H73.37L67.01 39H60.33ZM77.89 39L70.89 11H74.69L80.97 36.44L78.97 35.48H83.77L81.73 36.44L87.85 9.8H91.77L84.61 39H77.89Z" fill="white"/>
<path d="M93 0H198C200.761 0 203 2.23858 203 5V45C203 47.7614 200.761 50 198 50H93V0Z" fill="white"/>
<path d="M99.28 39V9.8H105.84V39H99.28ZM105.04 27.24V21.8H116.32V27.24H105.04ZM105.04 15.24V9.8H116.8V15.24H105.04ZM121.743 39V9.8H128.303V39H121.743ZM134.944 39V9.56H141.504V39H134.944ZM152.664 39L144.104 26.44H151.304L160.264 39H152.664ZM139.744 29.64V24.48H146.944C147.904 24.48 148.731 24.2933 149.424 23.92C150.144 23.52 150.691 22.9733 151.064 22.28C151.464 21.56 151.664 20.7333 151.664 19.8C151.664 18.8667 151.464 18.0533 151.064 17.36C150.691 16.64 150.144 16.0933 149.424 15.72C148.731 15.32 147.904 15.12 146.944 15.12H139.744V9.56H146.424C148.851 9.56 150.957 9.93333 152.744 10.68C154.531 11.4 155.904 12.48 156.864 13.92C157.824 15.36 158.304 17.1733 158.304 19.36V20C158.304 22.16 157.811 23.96 156.824 25.4C155.864 26.8133 154.491 27.88 152.704 28.6C150.944 29.2933 148.851 29.64 146.424 29.64H139.744ZM164.163 39V9.8H173.203L179.883 26.2H180.643L187.243 9.8H196.443V39H189.963V14.08L190.883 14.16L183.163 33.08H176.923L169.163 14.16L170.163 14.08V39H164.163Z" fill="#00215E"/>
</svg>
