<svg width="24" height="24" viewBox="0 0 24 24" fill="none" xmlns="http://www.w3.org/2000/svg">
<g clip-path="url(#clip0_6_11)">
<path fill-rule="evenodd" clip-rule="evenodd" d="M10.7741 5.10582C11.4772 5.88518 11.2543 6.76812 10.6326 7.60588C10.4852 7.8045 10.3153 8.00021 10.1101 8.21586C10.0116 8.31937 9.93484 8.39722 9.77421 8.55801C9.4094 8.92318 9.10272 9.23002 8.85418 9.47855C8.73365 9.59907 9.55655 11.2435 11.1536 12.8421C12.7497 14.4398 14.3941 15.2633 14.5151 15.1421L15.4345 14.2222C15.9409 13.7154 16.209 13.4709 16.5774 13.2292C17.3434 12.7266 18.1788 12.5901 18.8835 13.2202C21.1841 14.8658 22.486 15.8757 23.1238 16.5384C24.3678 17.831 24.2048 19.8207 23.1309 20.9558C22.7585 21.3494 22.2863 21.8219 21.7286 22.3595C18.3551 25.7349 11.2354 23.6808 5.77894 18.2189C0.321243 12.7559 -1.73179 5.63552 1.63465 2.26727C2.23903 1.6534 2.43829 1.45424 3.0269 0.87426C4.12278 -0.20555 6.20429 -0.374625 7.46963 0.875328C8.13521 1.53281 9.19631 2.89807 10.7741 5.10582ZM17.1307 15.9189L16.2111 16.839C14.648 18.4029 11.986 17.0698 9.45727 14.5386C6.92678 12.0056 5.59514 9.34462 7.15876 7.78113C7.40698 7.53294 7.71336 7.22639 8.07789 6.86149C8.22498 6.71427 8.29225 6.64607 8.37301 6.5612C8.48303 6.44556 8.57344 6.344 8.64583 6.25413C7.24753 4.30632 6.29699 3.08922 5.78456 2.58303C5.51992 2.32161 4.92735 2.36974 4.70981 2.58409C4.1296 3.15579 3.93889 3.3464 3.33696 3.95775C1.172 6.1239 2.82935 11.8719 7.47526 16.5224C12.1197 21.1714 17.8669 22.8296 20.0483 20.6472C20.5973 20.1177 21.0447 19.67 21.3891 19.3061C21.6379 19.0431 21.6824 18.5004 21.3962 18.203C20.9194 17.7076 19.7522 16.7975 17.7368 15.3502C17.5899 15.4685 17.4093 15.64 17.1307 15.9189ZM13.9905 0.0844921C19.1779 0.713274 23.2912 4.82652 23.9199 10.014L21.5497 10.409C21.092 6.2306 17.7738 2.91244 13.5954 2.45478L13.9905 0.0844921ZM13.2 4.8271C16.3695 5.11059 18.8938 7.6349 19.1773 10.8044L16.7994 11.2007C16.6985 9.03987 14.9646 7.3059 12.8037 7.205L13.2 4.8271Z" fill="white"/>
</g>
<defs>
<clipPath id="clip0_6_11">
<rect width="23.998" height="24" rx="4" fill="white"/>
</clipPath>
</defs>
</svg>
